# xmcd
#
# Track frame offsets: 
#        150
#        16635
#        28220
#        41477
#        55416
#        71505
#        90194
#        109747
#        125365
#        143684
#        160200
#
# Disc length: 2333 seconds
#
# Revision: 0
# Processed by: cddbd v1.5.2PL0 Copyright (c) Steve Scherf et al.
# Submitted via: ExactAudioCopyFreeDBPlugin 1.0
#
DISCID=85091b0b
DTITLE=Leeroy Stagger and His Band - Radiant Land
DYEAR=2012
DGENRE=Country-Rock
TTITLE0=Dirty Windshields
TTITLE1=Enough Love to Go Around
TTITLE2=Maria
TTITLE3=Radiant Land
TTITLE4=For the Love of You
TTITLE5=Message of Love
TTITLE6=Light That Guides You
TTITLE7=Nighttime Talks to Me
TTITLE8=Capitalism Must Die!
TTITLE9=Travelling Over Water
TTITLE10=Summer Storm
EXTD=
EXTT0=
EXTT1=
EXTT2=
EXTT3=
EXTT4=
EXTT5=
EXTT6=
EXTT7=
EXTT8=
EXTT9=
EXTT10=
PLAYORDER=
